<svg width="208" height="24" viewBox="0 0 208 24" fill="none" xmlns="http://www.w3.org/2000/svg">
<path d="M12 0L14.6942 8.2918H23.4127L16.3593 13.4164L19.0534 21.7082L12 16.5836L4.94658 21.7082L7.64074 13.4164L0.587322 8.2918H9.30583L12 0Z" fill="#242424"/>
<path d="M40 0L42.6942 8.2918H51.4127L44.3593 13.4164L47.0534 21.7082L40 16.5836L32.9466 21.7082L35.6407 13.4164L28.5873 8.2918H37.3058L40 0Z" fill="#242424"/>
<path d="M68 0L70.6942 8.2918H79.4127L72.3593 13.4164L75.0534 21.7082L68 16.5836L60.9466 21.7082L63.6407 13.4164L56.5873 8.2918H65.3058L68 0Z" fill="#242424"/>
<path d="M96 0L98.6942 8.2918H107.413L100.359 13.4164L103.053 21.7082L96 16.5836L88.9466 21.7082L91.6407 13.4164L84.5873 8.2918H93.3058L96 0Z" fill="#242424"/>
<path d="M124 0L126.694 8.2918H135.413L128.359 13.4164L131.053 21.7082L124 16.5836L116.947 21.7082L119.641 13.4164L112.587 8.2918H121.306L124 0Z" fill="#242424"/>
<path d="M145.332 18.5V17.33C146.52 16.454 147.51 15.686 148.302 15.026C149.106 14.366 149.748 13.766 150.228 13.226C150.708 12.686 151.05 12.176 151.254 11.696C151.458 11.204 151.56 10.694 151.56 10.166C151.56 9.458 151.332 8.888 150.876 8.456C150.432 8.012 149.82 7.79 149.04 7.79C148.224 7.79 147.57 8.06 147.078 8.6C146.586 9.128 146.298 9.836 146.214 10.724L144.954 9.968C145.062 9.272 145.284 8.66 145.62 8.132C145.968 7.604 146.43 7.19 147.006 6.89C147.594 6.59 148.29 6.44 149.094 6.44C149.706 6.44 150.252 6.53 150.732 6.71C151.224 6.89 151.644 7.148 151.992 7.484C152.34 7.808 152.604 8.198 152.784 8.654C152.976 9.11 153.072 9.614 153.072 10.166C153.072 10.91 152.892 11.642 152.532 12.362C152.172 13.07 151.578 13.814 150.75 14.594C149.922 15.374 148.8 16.238 147.384 17.186V17.204C147.516 17.192 147.696 17.186 147.924 17.186C148.164 17.174 148.398 17.168 148.626 17.168C148.866 17.156 149.046 17.15 149.166 17.15H153.324V18.5H145.332ZM159.66 18.68C158.604 18.68 157.752 18.44 157.104 17.96C156.468 17.48 155.976 16.814 155.628 15.962L157.032 15.224C157.224 15.848 157.518 16.358 157.914 16.754C158.322 17.138 158.916 17.33 159.696 17.33C160.248 17.33 160.716 17.228 161.1 17.024C161.496 16.82 161.802 16.532 162.018 16.16C162.234 15.776 162.342 15.32 162.342 14.792C162.342 14.228 162.24 13.76 162.036 13.388C161.844 13.004 161.562 12.716 161.19 12.524C160.818 12.332 160.362 12.236 159.822 12.236C159.438 12.236 159.078 12.278 158.742 12.362C158.418 12.434 158.124 12.554 157.86 12.722C157.596 12.89 157.368 13.112 157.176 13.388L155.916 13.154L156.618 6.62H163.296V7.97H157.842L157.374 11.714L157.338 11.876H157.374C157.662 11.576 158.028 11.336 158.472 11.156C158.928 10.976 159.468 10.886 160.092 10.886C160.848 10.886 161.502 11.048 162.054 11.372C162.618 11.684 163.056 12.128 163.368 12.704C163.68 13.28 163.836 13.952 163.836 14.72C163.836 15.332 163.734 15.884 163.53 16.376C163.326 16.868 163.038 17.288 162.666 17.636C162.294 17.972 161.85 18.23 161.334 18.41C160.83 18.59 160.272 18.68 159.66 18.68ZM166.303 18.5V17.33C167.491 16.454 168.481 15.686 169.273 15.026C170.077 14.366 170.719 13.766 171.199 13.226C171.679 12.686 172.021 12.176 172.225 11.696C172.429 11.204 172.531 10.694 172.531 10.166C172.531 9.458 172.303 8.888 171.847 8.456C171.403 8.012 170.791 7.79 170.011 7.79C169.195 7.79 168.541 8.06 168.049 8.6C167.557 9.128 167.269 9.836 167.185 10.724L165.925 9.968C166.033 9.272 166.255 8.66 166.591 8.132C166.939 7.604 167.401 7.19 167.977 6.89C168.565 6.59 169.261 6.44 170.065 6.44C170.677 6.44 171.223 6.53 171.703 6.71C172.195 6.89 172.615 7.148 172.963 7.484C173.311 7.808 173.575 8.198 173.755 8.654C173.947 9.11 174.043 9.614 174.043 10.166C174.043 10.91 173.863 11.642 173.503 12.362C173.143 13.07 172.549 13.814 171.721 14.594C170.893 15.374 169.771 16.238 168.355 17.186V17.204C168.487 17.192 168.667 17.186 168.895 17.186C169.135 17.174 169.369 17.168 169.597 17.168C169.837 17.156 170.017 17.15 170.137 17.15H174.295V18.5H166.303Z" fill="black"/>
<path d="M196 22C201.5 22 206 17.5 206 12C206 6.5 201.5 2 196 2C190.5 2 186 6.5 186 12C186 17.5 190.5 22 196 22Z" stroke="#606060" stroke-width="1.5" stroke-linecap="round" stroke-linejoin="round"/>
<path d="M196 8V13" stroke="#606060" stroke-width="1.5" stroke-linecap="round" stroke-linejoin="round"/>
<path d="M195.995 16H196.003" stroke="#606060" stroke-width="2" stroke-linecap="round" stroke-linejoin="round"/>
</svg>
